<svg xmlns="http://www.w3.org/2000/svg" viewBox="0 0 64 64">
  <defs>
    <linearGradient id="bg" x1="8" y1="4" x2="56" y2="60" gradientUnits="userSpaceOnUse">
      <stop stop-color="#101923"/>
      <stop offset="1" stop-color="#05070b"/>
    </linearGradient>
    <linearGradient id="mark" x1="17" y1="16" x2="48" y2="49" gradientUnits="userSpaceOnUse">
      <stop stop-color="#70f1ff"/>
      <stop offset="1" stop-color="#c7ff67"/>
    </linearGradient>
  </defs>
  <rect x="2" y="2" width="60" height="60" rx="18" fill="url(#bg)"/>
  <rect x="2.75" y="2.75" width="58.5" height="58.5" rx="17.25" fill="none" stroke="#70f1ff" stroke-opacity=".38" stroke-width="1.5"/>
  <path fill="url(#mark)" d="M13 46 25.1 17h6.1L43 46h-7.1l-2.3-6.1H22.1L19.9 46H13Zm11.3-12.2h7.2l-3.6-9.6-3.6 9.6Z"/>
  <path fill="#f1f5f9" d="M38.4 17H45v11.2L53.7 17H61L50.5 30.1 61.5 46h-7.8l-7.6-11.2-1.1 1.3V46h-6.6V17Z"/>
  <circle cx="53" cy="11" r="3.2" fill="#c7ff67"/>
</svg>
